<svg width="336" height="336" viewBox="0 0 336 336" fill="none" xmlns="http://www.w3.org/2000/svg">
<circle cx="167.543" cy="167.543" r="138.836" transform="rotate(13.5741 167.543 167.543)" fill="url(#paint0_linear_112_1018)"/>
<path d="M153.34 154.523C153.34 183.643 140.071 149.251 123.703 149.251C107.335 149.251 94.0657 183.643 94.0657 154.523C94.0657 125.404 107.335 101.798 123.703 101.798C140.071 101.798 153.34 125.404 153.34 154.523Z" fill="url(#paint1_linear_112_1018)"/>
<path d="M240.32 154.523C240.32 183.643 227.05 149.251 210.682 149.251C194.314 149.251 181.045 183.643 181.045 154.523C181.045 125.404 194.314 101.798 210.682 101.798C227.05 101.798 240.32 125.404 240.32 154.523Z" fill="url(#paint2_linear_112_1018)"/>
<path d="M153.04 78.8418C153.668 84.3388 138.865 71.6714 122.603 73.5297C106.34 75.3879 94.7764 91.068 94.1483 85.5711C93.5202 80.0741 105.317 66.4301 121.579 64.5719C137.841 62.7137 152.412 73.3449 153.04 78.8418Z" fill="white"/>
<path d="M179.902 78.8422C179.274 84.3391 194.077 71.6718 210.339 73.53C226.602 75.3882 238.165 91.0683 238.794 85.5714C239.422 80.0745 227.625 66.4305 211.363 64.5722C195.1 62.714 180.53 73.3452 179.902 78.8422Z" fill="white"/>
<path d="M266.751 36.3079C266.886 35.1812 268.521 35.1812 268.656 36.3079L272.083 64.9603C272.128 65.3344 272.388 65.6477 272.747 65.761L292.186 71.8904C293.08 72.1723 293.08 73.4375 292.186 73.7194L272.747 79.8489C272.388 79.9622 272.128 80.2754 272.083 80.6495L268.656 109.302C268.521 110.429 266.886 110.429 266.751 109.302L263.324 80.6495C263.279 80.2754 263.019 79.9622 262.66 79.8489L243.222 73.7194C242.327 73.4375 242.327 72.1723 243.222 71.8904L262.66 65.761C263.019 65.6477 263.279 65.3344 263.324 64.9603L266.751 36.3079Z" fill="url(#paint3_linear_112_1018)"/>
<defs>
<linearGradient id="paint0_linear_112_1018" x1="225.167" y1="28.7071" x2="109.353" y2="371.207" gradientUnits="userSpaceOnUse">
<stop stop-color="#EB9191"/>
<stop offset="1" stop-color="white" stop-opacity="0.25"/>
</linearGradient>
<linearGradient id="paint1_linear_112_1018" x1="123.703" y1="101.798" x2="123.703" y2="166.227" gradientUnits="userSpaceOnUse">
<stop stop-color="white"/>
<stop offset="1" stop-color="white" stop-opacity="0.2"/>
</linearGradient>
<linearGradient id="paint2_linear_112_1018" x1="210.682" y1="101.798" x2="210.682" y2="166.227" gradientUnits="userSpaceOnUse">
<stop stop-color="white"/>
<stop offset="1" stop-color="white" stop-opacity="0.2"/>
</linearGradient>
<linearGradient id="paint3_linear_112_1018" x1="267.704" y1="28.349" x2="268.021" y2="163.592" gradientUnits="userSpaceOnUse">
<stop stop-color="#FFE387"/>
<stop offset="1" stop-color="white" stop-opacity="0"/>
</linearGradient>
</defs>
</svg>
